<svg width="16" height="16" viewBox="0 0 16 16" fill="none" xmlns="http://www.w3.org/2000/svg">
<path d="M11.02 7.37332L10.3133 6.66666L7.06 9.91999L5.64667 8.50666L4.94 9.21332L7.06 11.3333L11.02 7.37332ZM12.6667 1.99999H12V0.666656H10.6667V1.99999H5.33333V0.666656H4V1.99999H3.33333C2.59333 1.99999 2.00667 2.59999 2.00667 3.33332L2 12.6667C2 13.4 2.59333 14 3.33333 14H12.6667C13.4 14 14 13.4 14 12.6667V3.33332C14 2.59999 13.4 1.99999 12.6667 1.99999ZM12.6667 12.6667H3.33333V5.33332H12.6667V12.6667Z" fill="#7D8395"/>
</svg>
